<?xml version="1.0" encoding="UTF-8"?>
<svg xmlns="http://www.w3.org/2000/svg" xmlns:xlink="http://www.w3.org/1999/xlink" version="1.1" id="Layer_1" x="0px" y="0px" viewBox="0 0 448.3 120.7" style="enable-background:new 0 0 448.3 120.7;" xml:space="preserve">
<style type="text/css">
	.st0{fill:#FFFFFF;}
	.st1{fill:#D02C2F;}
</style>
<g>
	<path class="st0" d="M39.3,25.8h-7.4c-2.2,0-4,0.7-5.5,2.1C24.8,29.3,24,31,24,33v53.8c0,2,0.8,3.7,2.3,5.1   c1.5,1.4,3.4,2.1,5.5,2.1h7.4c2.2,0,4-0.7,5.5-2.1c1.5-1.4,2.3-3.1,2.3-5.1V72.9h-8.3v13.5h-6.4v-53h6.4v13.5h8.3V33   c0-2-0.8-3.7-2.3-5.1C43.3,26.5,41.4,25.8,39.3,25.8z"></path>
	<path class="st0" d="M76.4,25.8H69c-2.2,0-4,0.7-5.5,2.1c-1.5,1.4-2.3,3.1-2.3,5.1v53.8c0,2,0.8,3.7,2.3,5.1C65,93.3,66.8,94,69,94   h7.4c2.2,0,4-0.7,5.5-2.1c1.5-1.4,2.3-3.1,2.3-5.1V33c0-2-0.8-3.7-2.3-5.1C80.4,26.5,78.5,25.8,76.4,25.8z M75.9,33.4v53h-6.4v-53   H75.9z"></path>
	<path class="st0" d="M129.1,25.8h-7.4c-1.1,0-2.1,0.4-3,1.1c-0.3,0.3-0.5,0.6-0.7,0.9c-0.2-0.3-0.4-0.6-0.7-0.9   c-0.8-0.7-1.8-1.1-2.9-1.1H107c-2.2,0-4,0.7-5.5,2.1c-1.5,1.4-2.3,3.1-2.3,5.1v61h8.3V33.4h6.4V94h8.3V33.4h6.4V94h8.3V33   c0-2-0.8-3.7-2.3-5.1C133.1,26.5,131.2,25.8,129.1,25.8z"></path>
	<path class="st0" d="M181.8,25.8h-7.4c-1.1,0-2.1,0.4-3,1.1c-0.3,0.3-0.5,0.6-0.7,0.9c-0.2-0.3-0.4-0.6-0.7-0.9   c-0.8-0.7-1.8-1.1-2.9-1.1h-7.4c-2.2,0-4,0.7-5.5,2.1c-1.5,1.4-2.3,3.1-2.3,5.1v61h8.3V33.4h6.4V94h8.3V33.4h6.4V94h8.3V33   c0-2-0.8-3.7-2.3-5.1C185.9,26.5,184,25.8,181.8,25.8z"></path>
	<path class="st0" d="M206.9,27.9c-1.5,1.4-2.3,3.1-2.3,5.1v53.8c0,2,0.8,3.7,2.3,5.1c1.5,1.4,3.4,2.1,5.5,2.1h15.2v-7.6H213   l-0.2-18.9h14.9v-7h-14.9l0.2-27.1h14.7v-7.6h-15.2C210.3,25.8,208.5,26.5,206.9,27.9z"></path>
	<path class="st0" d="M296.2,25.8h-7.4c-2.2,0-4,0.7-5.5,2.1c-1.5,1.4-2.3,3.1-2.3,5.1v53.8c0,2,0.8,3.7,2.3,5.1   c1.5,1.4,3.4,2.1,5.5,2.1h7.4c2.2,0,4-0.7,5.5-2.1c1.5-1.4,2.3-3.1,2.3-5.1V72.9h-8.3v13.5h-6.4v-53h6.4v13.5h8.3V33   c0-2-0.8-3.7-2.3-5.1C300.2,26.5,298.4,25.8,296.2,25.8z"></path>
	<path class="st0" d="M342.1,33.4v-7.6h-15.2c-2.2,0-4,0.7-5.5,2.1c-1.5,1.4-2.3,3.1-2.3,5.1v53.8c0,2,0.8,3.7,2.3,5.1   c1.5,1.4,3.4,2.1,5.5,2.1h15.2v-7.6h-14.7V67.5h14.7v-7h-14.7V33.4H342.1z"></path>
	<path class="st0" d="M265,62.7c0.7-0.7,1.1-1.5,1.1-2.5v-27c0-2.1-0.8-3.8-2.2-5.2c-1.5-1.4-3.3-2.2-5.4-2.2h-15.7V94h7.3V67.6h8.7   V94h7.3V67.9c0-1-0.3-1.8-1.1-2.5c-0.7-0.7-1.6-1-2.6-1V64v-0.3C263.4,63.7,264.2,63.4,265,62.7z M258.7,60.5H250V32.8h8.7V60.5z"></path>
	<g>
		<path class="st1" d="M389.4,25.7c-18.9,0-34.2,15.3-34.2,34.2c0,18.9,15.3,34.2,34.2,34.2c18.9,0,34.2-15.3,34.2-34.2    C423.6,41,408.3,25.7,389.4,25.7z M378.4,79.8h-9.1c-2.3,0-4.2-1.9-4.2-4.2V40.1h4.2v35.1c0,0.5,0.4,0.8,0.8,0.8h8.3V79.8z     M395.8,79.8h-4.2V65.3h-5.9v14.4h-4.2V44.2c0-2.3,1.9-4.2,4.2-4.2h5.9c2.3,0,4.2,1.9,4.2,4.2V79.8z M412.7,58.9    c0.6,0.9,1,2,1,3.1v13.6c0,2.3-1.9,4.2-4.2,4.2h-10V40.1h10c2.3,0,4.2,1.9,4.2,4.2v11.1c0,1.1-0.3,2.2-1,3.1l-0.2,0.2L412.7,58.9z    "></path>
		<path class="st1" d="M408.7,43.8h-5v13h4.6c0.7,0,1.3-0.6,1.3-1.3V44.6C409.5,44.2,409.1,43.8,408.7,43.8z"></path>
		<path class="st1" d="M408.2,60.5h-4.6V76h5c0.5,0,0.8-0.4,0.8-0.8V61.8C409.5,61.1,408.9,60.5,408.2,60.5z"></path>
		<path class="st1" d="M390.8,43.8h-4.2c-0.5,0-0.8,0.4-0.8,0.8v16.9h5.9V44.6C391.6,44.2,391.2,43.8,390.8,43.8z"></path>
	</g>
</g>
</svg>
