<?xml version="1.0" encoding="UTF-8"?>
<svg xmlns="http://www.w3.org/2000/svg" id="Layer_1" data-name="Layer 1" viewBox="0 0 1599.66 392.65">
  <defs>
    <style>.cls-1{fill:#767779;}.cls-2{fill:#b38d3a;}</style>
  </defs>
  <path class="cls-1" d="M147.93,293.31a26.73,26.73,0,0,0,6-.53H154c1.06-.23,2.07-.44,2.78-6.07.85-7.32.85-21.32.85-37.54V220.43c-8.76,4-18.41,5.32-28.46,5.32a92.61,92.61,0,0,1-20.83-2.28l.72.46c-15.85,4.84-35.67,17.65-35.67,38.67,0,19.13,15.85,38.88,51.52,38.88,2.21,0,8.81-.21,15.42-.63l1,0a6.4,6.4,0,0,1-.24-1.65c0-2.18,1.43-5.86,6.78-5.86m-11.3-2.55a37.35,37.35,0,0,1-13.88,2.1C112.4,292.86,99,287.4,99,267.64c0-8.19,3.74-22.28,18.28-31.73,4-2.73,9.25-4.62,16.73-4.62h8.37c.66,0,1.1.21,1.1,1.26v40.56c0,11.77-.66,15.34-6.82,17.65"></path>
  <path class="cls-2" d="M186.87,166.25a11.54,11.54,0,0,0-3.12-.32c-5.37,0-11.35.12-16.36.23,4.43.1,8.09.19,9.85.19,3,0,6.3,0,9.63-.1"></path>
  <path class="cls-2" d="M157.67,220.43v-2.81c0-27.06,0-32-.22-37.58a70.21,70.21,0,0,1,0-7.16c0-1.08.11-2,.18-2.76a13,13,0,0,0-1.63-.29c-1.8-.17-3.81-.29-6-.33-2,0-3.3-.63-3.3-1.89,0-.67.45-1.1,1.29-1.36-7.39-.12-14.88-.32-19.44-.32-27,0-36.88,10.29-39.95,19.32a66.69,66.69,0,0,1-3.32-21.31c0-17.71,5.09-28.44,12.87-35.24,9.69-8.34,19.38-8.52,27-8.52,15.73,0,26.22,6.48,30.35,11.07a20,20,0,0,1,4.76,11.92c.16,1.19.47,1.87,1.43,1.87s1.91-1,1.91-3.23c0-18.22.95-22.13.95-23.84,0-1-.32-1.53-1.91-1.7a102.17,102.17,0,0,1-11.12-1.54,149.21,149.21,0,0,0-24.78-2.38c-11.75,0-24.3,1-37.65,9.36-12.86,8-24.46,24.18-24.46,47.34,0,31.61,18.94,48.65,43.82,54.42a92.61,92.61,0,0,0,20.83,2.28c10,0,19.7-1.3,28.46-5.32m-45.73-7.5A25.13,25.13,0,0,1,109.1,201c0-12,7.49-26.9,24.22-26.9a50.46,50.46,0,0,1,8.37.43c1.32.21,1.76,1,1.76,2.94V216.3c-3.24,1.44-6.06,1.45-9.63,1.45a49.38,49.38,0,0,1-21.88-4.82"></path>
  <path class="cls-2" d="M174.76,219.28c-1.74-1-1.74-1.19-1.74-5.11v-16c0-7.15,0-12.95-.16-17.37-.08-2.51-.48-4.26-1.32-5.49a7.29,7.29,0,0,0-1.31-1.29,5.54,5.54,0,0,0-1.08-.58s0-.11,0-.16a24.06,24.06,0,0,0-7.89-2.71,63.64,63.64,0,0,0-.13,9.23c.22,5.67.22,10.71.22,37.82v31.53c0,16.39,0,30.47-.89,38-.66,5.25-1.75,8.61-5.72,9.45a29.82,29.82,0,0,1-6.83.64c-2.42,0-3.08,1-3.08,1.89,0,1.26,1.32,1.89,3.74,1.89,4,0,8.81-.21,13.44-.42,4.62,0,13.67-.21,15.87-.21,3.08,0,9.91.21,16.52.42,6.6.42,13.21.63,15.41.63,35.67,0,51.53-19.75,51.53-38.88,0-21-19.82-33.83-35.68-38.67l.73-.46c-2,.46-4,.83-6.09,1.15a96.41,96.41,0,0,1-14.75,1.13c-11,0-21.44-1.53-30.81-6.47m61.06,48.36c0,19.76-13.43,25.22-23.79,25.22a37.3,37.3,0,0,1-13.87-2.1c-6.17-2.31-6.82-5.88-6.82-17.65V232.55c0-1.05.44-1.26,1.09-1.26h8.37c7.49,0,12.78,1.89,16.74,4.62,14.53,9.45,18.28,23.54,18.28,31.73"></path>
  <path class="cls-1" d="M146.63,167.61c0,1.26,1.32,1.89,3.3,1.89q3.34.08,6,.33a13,13,0,0,1,1.63.29h0l1.11,0c.91.12,1.74.27,2.53.42a24.06,24.06,0,0,1,7.89,2.71c0,.05,0,.12,0,.16a5.93,5.93,0,0,1,1.09.58,7.54,7.54,0,0,1,1.3,1.29c.84,1.23,1.24,3,1.32,5.49.16,4.42.16,10.22.16,17.37v16c0,3.92,0,4.09,1.74,5.11,9.37,4.94,19.85,6.47,30.81,6.47a96.41,96.41,0,0,0,14.75-1.13c2.06-.32,4.1-.69,6.09-1.15a64.75,64.75,0,0,0,21.52-9c13.49-9.06,22.3-23.83,22.3-45.38,0-23.16-11.6-39.33-24.47-47.34-13.34-8.33-25.89-9.36-37.64-9.36a150.36,150.36,0,0,0-24.79,2.38,101.22,101.22,0,0,1-11.12,1.53c-1.59.18-1.9.69-1.9,1.71,0,1.71.95,5.62.95,23.84,0,2.21.79,3.23,1.91,3.23,1,0,1.27-.68,1.43-1.87a20,20,0,0,1,4.76-11.92c4.13-4.59,14.62-11.07,30.34-11.07,7.63,0,17.32.17,27,8.52,7.78,6.81,12.87,17.53,12.87,35.24a66.69,66.69,0,0,1-3.32,21.31c-3.08-9-12.9-19.32-39.95-19.32-4.56,0-12.05.2-19.44.32-3.33.06-6.62.1-9.63.1-1.76,0-5.42-.1-9.85-.19l-1.29,0c-2.32,0-4.81-.1-7.33-.13s-5.24-.07-7.74-.07a11.51,11.51,0,0,0-3.11.32c-.84.26-1.29.68-1.29,1.36m44.71,9.88c0-1.89.44-2.73,1.75-2.94a50.46,50.46,0,0,1,8.37-.43c16.74,0,24.22,14.93,24.22,26.9a25,25,0,0,1-2.84,11.91A49.3,49.3,0,0,1,201,217.75c-3.58,0-6.4,0-9.63-1.45Z"></path>
  <path class="cls-2" d="M354.64,112.66h3a52.16,52.16,0,0,1,19.48,3.71,56.37,56.37,0,0,1,8.67,4.45c1.25.8,2.71,1.82,4.4,3.08l-9.47,9a38.9,38.9,0,0,0-8.87-5,37.9,37.9,0,0,0-14.08-2.57,37.37,37.37,0,0,0-14.14,2.57,36.79,36.79,0,0,0-11.94,7.66,35.72,35.72,0,0,0-8.08,11.23,33.81,33.81,0,0,0,0,26.62,34.85,34.85,0,0,0,8.08,11.23,36,36,0,0,0,11.94,7.66,39.81,39.81,0,0,0,25.55.88,35.17,35.17,0,0,0,10.07-4.84,37.22,37.22,0,0,0,6.81-6.08,34.45,34.45,0,0,0,5-7.35l2.8-5.58H360.77V157.67h47a48.63,48.63,0,0,1-2.86,18.38,44.06,44.06,0,0,1-11.75,17.52A53.55,53.55,0,0,1,338.29,204,49.42,49.42,0,0,1,322,193.57a44.93,44.93,0,0,1-11.07-15.32,47,47,0,0,1,0-36.4A46.3,46.3,0,0,1,322,126.47,49.35,49.35,0,0,1,338.29,116a50.84,50.84,0,0,1,16.28-3.45Z"></path>
  <path class="cls-2" d="M444.49,113.29h30.95a40,40,0,0,1,14,2.45,35,35,0,0,1,11.21,6.72,31,31,0,0,1,7.07,9.22,25.77,25.77,0,0,1,2.14,11v2.63a25,25,0,0,1-1.54,8.91,34.74,34.74,0,0,1-4.53,8.1,22.38,22.38,0,0,1-4.94,5,26.55,26.55,0,0,1-6.14,3L488.05,172l2.74,4,20.95,30.57H495.19l-22.61-32.7H457.9v32.7H444.56Zm33,48.14.06.06a18.66,18.66,0,0,0,7.14-1.25,20.45,20.45,0,0,0,5.67-4,16.81,16.81,0,0,0,4.27-6,17.22,17.22,0,0,0,1.27-7,17.53,17.53,0,0,0-1.27-6.78,20.23,20.23,0,0,0-4.2-5.64v-.07a18.71,18.71,0,0,0-7.21-3.89,30.08,30.08,0,0,0-9.07-1.32H457.83v35.78H462l5,.06h10.48Z"></path>
  <path class="cls-2" d="M629.66,206.62H615.45l-7.34-15.38H566l-7.34,15.38H544.4L587,112.41ZM587,181.2h16.25q-4.08-8.79-8.11-18.89t-8-18.95q-4.07,8.85-8.17,18.95t-8.1,18.89Z"></path>
  <path class="cls-2" d="M705.35,112.79a58.18,58.18,0,0,1,10.14.88,51,51,0,0,1,9.4,2.82,63.52,63.52,0,0,1,8.68,4.46c1.6,1,3.06,2.07,4.4,3.07l-9.54,9a37.32,37.32,0,0,0-8.87-5.08,38.39,38.39,0,0,0-14.08-2.58,36.62,36.62,0,0,0-26,10.23,34.39,34.39,0,0,0-8.07,11.24h-.07a34.76,34.76,0,0,0,0,26.67,37.76,37.76,0,0,0,20,18.77,39,39,0,0,0,14.14,2.57,39.6,39.6,0,0,0,14.21-2.57,34.05,34.05,0,0,0,8.87-5l9.47,9a51.25,51.25,0,0,1-4.4,3.08,49.37,49.37,0,0,1-8.67,4.45,46.38,46.38,0,0,1-9.41,2.76A55.15,55.15,0,0,1,686.13,204a49.28,49.28,0,0,1-16.27-10.41,45.23,45.23,0,0,1-11.08-15.38,46.67,46.67,0,0,1,0-36.28,47.43,47.43,0,0,1,11.08-15.44A50.73,50.73,0,0,1,686.13,116a51.53,51.53,0,0,1,13.88-3.2Z"></path>
  <path class="cls-2" d="M831.14,113.1v12.43H788v28.24h32.35V166.2H788v28.24h43.16v12.43H774.7V113.1Z"></path>
  <path class="cls-1" d="M953.5,113.29H961a27.23,27.23,0,0,1,9.94,1.89,26.18,26.18,0,0,1,8.41,5.39,25.38,25.38,0,0,1,5.47,7.47,22.14,22.14,0,0,1,1.87,9,20.48,20.48,0,0,1-1,5.65,29.6,29.6,0,0,1-2.94,6.46l-2.2,3.71,4.13,1.75q2.07.94,4.14,2.14a23.91,23.91,0,0,1,2.94,2.19,29.25,29.25,0,0,1,6.33,9.1,26.72,26.72,0,0,1,0,21.28,27.58,27.58,0,0,1-6.33,9,30.06,30.06,0,0,1-9.61,6.15,31.07,31.07,0,0,1-11.21,2.07H935.16V113.29Zm-5.2,38.48,4.33-.19,6.54-.38c.62,0,1.18-.06,1.67-.06l.27-.06A18.54,18.54,0,0,0,966,150a15.88,15.88,0,0,0,4.33-3,13.65,13.65,0,0,0,2.87-4.14,11.92,11.92,0,0,0,1-4.89,11.78,11.78,0,0,0-1-4.84,15,15,0,0,0-2.87-4.14,15.24,15.24,0,0,0-4.27-2.7,13.71,13.71,0,0,0-5.07-.94H948.3v26.49Zm0,42.93h22.61a18,18,0,0,0,6.34-1.2,15.37,15.37,0,0,0,5.4-3.45,15.54,15.54,0,0,0,4.94-11.36,15.51,15.51,0,0,0-1.27-6.09,16.61,16.61,0,0,0-3.67-5.27,18.28,18.28,0,0,0-5.27-3.45,17.66,17.66,0,0,0-6.2-1.57q-3.4-.19-6.51-.16c-2.06,0-4.14.06-6.23.1-1,0-2,0-3,0l-2.9,0h-4.2V194.7Z"></path>
  <path class="cls-1" d="M1036.93,113.29h31a40,40,0,0,1,14,2.45,35,35,0,0,1,11.21,6.72,31,31,0,0,1,7.07,9.22,25.77,25.77,0,0,1,2.14,11v2.63a25,25,0,0,1-1.54,8.91,34.74,34.74,0,0,1-4.53,8.1,22.38,22.38,0,0,1-4.94,5,26.55,26.55,0,0,1-6.14,3l-4.67,1.76,2.74,4,21,30.57h-16.55L1065,173.92h-14.68v32.7H1037Zm33,48.14.06.06a18.7,18.7,0,0,0,7.14-1.25,20.45,20.45,0,0,0,5.67-4,16.81,16.81,0,0,0,4.27-6,17.22,17.22,0,0,0,1.27-7,17.53,17.53,0,0,0-1.27-6.78,20.23,20.23,0,0,0-4.2-5.64v-.07a18.71,18.71,0,0,0-7.21-3.89,30.08,30.08,0,0,0-9.07-1.32h-16.28v35.78h4.14l5,.06h10.48Z"></path>
  <path class="cls-1" d="M1222.09,206.62h-14.2l-7.34-15.38h-42.16l-7.34,15.38h-14.21l42.63-94.21Zm-42.66-25.42h16.25q-4.08-8.79-8.11-18.89t-8-18.95q-4.07,8.85-8.17,18.95t-8.1,18.89Z"></path>
  <path class="cls-1" d="M1323.54,176.43V113.1h13.27v95.21L1272,143.36v63.51h-13.28V112.35Z"></path>
  <path class="cls-1" d="M1404.7,113.36a55.44,55.44,0,0,1,17.14,3.51A49,49,0,0,1,1438.25,127l.07.06a38.94,38.94,0,0,1,9.87,15,51.07,51.07,0,0,1,0,36,39,39,0,0,1-9.87,14.91l-.07.06a47.92,47.92,0,0,1-16.41,10.11,55.47,55.47,0,0,1-19.94,3.51h-24.42V113.36h27.22ZM1402,194.19a43.52,43.52,0,0,0,14.54-2.32,32.78,32.78,0,0,0,11.68-7,31.23,31.23,0,0,0,7.47-11.11,39.65,39.65,0,0,0,0-27.55,31.08,31.08,0,0,0-7.54-11.05,35,35,0,0,0-11.74-7.15,43.73,43.73,0,0,0-14.61-2.32h-11.21v68.53H1402Z"></path>
  <path class="cls-1" d="M1519.26,193.58a21,21,0,0,0,5.35-2.91,14,14,0,0,0,3.83-4.44,11.51,11.51,0,0,0,1.46-5.64,9.3,9.3,0,0,0-1.11-4.7,12.42,12.42,0,0,0-3-3.72,22.62,22.62,0,0,0-4.51-2.87,41.73,41.73,0,0,0-5.13-2.16q-2.45-.82-5.38-1.58a54.49,54.49,0,0,1-11.71-4.43,31.39,31.39,0,0,1-9-7.1,22.06,22.06,0,0,1-4.08-6.73,21.45,21.45,0,0,1-1.45-7.83,25.14,25.14,0,0,1,2.21-10.41,26.39,26.39,0,0,1,6.15-8.61,28.89,28.89,0,0,1,9.22-5.82,30.62,30.62,0,0,1,21.24-.35,29.53,29.53,0,0,1,8.67,4.87,26,26,0,0,1,8.78,13l-13.24,2.63a14.28,14.28,0,0,0-3.58-5.3,15.08,15.08,0,0,0-10.62-4.2,15.63,15.63,0,0,0-10.66,4.2,14.78,14.78,0,0,0-3.31,4.59,12.94,12.94,0,0,0-1.19,5.44,11,11,0,0,0,.66,3.85,11.46,11.46,0,0,0,1.68,3.1,13.23,13.23,0,0,0,2.64,2.49,23.46,23.46,0,0,0,3.15,2,36.67,36.67,0,0,0,3.63,1.57c1.41.53,2.62,1,3.65,1.25l3.64,1.09c1.4.41,2.46.74,3.19,1a50.67,50.67,0,0,1,6.9,2.86,40.38,40.38,0,0,1,6.28,3.94,30.65,30.65,0,0,1,5.18,5,21.6,21.6,0,0,1,3.47,6,19.75,19.75,0,0,1,1.3,7.08,23.13,23.13,0,0,1-2.55,10.57,27.28,27.28,0,0,1-6.71,8.6,32.6,32.6,0,0,1-9.7,5.67,31.41,31.41,0,0,1-11.32,2.11,32.13,32.13,0,0,1-12.36-2.45,31.19,31.19,0,0,1-10.43-7,26.16,26.16,0,0,1-6.36-10.24l13.32-2.67a15.15,15.15,0,0,0,6.35,6.89,18.16,18.16,0,0,0,9.41,2.67A20.92,20.92,0,0,0,1519.26,193.58Z"></path>
  <path class="cls-1" d="M529.5,286.66c-2.15.4-4.35.73-6.59.95A75.63,75.63,0,0,1,515,288a26.38,26.38,0,0,1-10.69-2,21,21,0,0,1-7.56-5.46,22.55,22.55,0,0,1-4.47-8.18,34.31,34.31,0,0,1-1.47-10.25,30.2,30.2,0,0,1,1.47-9.22,25.74,25.74,0,0,1,4.43-8.3,23.23,23.23,0,0,1,7.49-6,22.39,22.39,0,0,1,10.52-2.35c1.43,0,2.8,0,4.11.13a33.68,33.68,0,0,1,3.9.41c1.29.2,2.59.45,3.9.73s2.74.63,4.27,1q.14,2.69.53,5.57a55,55,0,0,0,1,5.64,1.05,1.05,0,0,1-.58.23,3.49,3.49,0,0,1-.72.08,1.33,1.33,0,0,1-1.43-1q-1.29-5.16-4.36-7.38c-2.06-1.49-5-2.23-8.81-2.23a18.79,18.79,0,0,0-8,1.61,15.78,15.78,0,0,0-5.68,4.42,19.45,19.45,0,0,0-3.42,6.68,30.05,30.05,0,0,0-1.13,8.41,31.27,31.27,0,0,0,1.46,9.76,24.55,24.55,0,0,0,4,7.68,17.61,17.61,0,0,0,6,5,16.33,16.33,0,0,0,7.55,1.77,28.3,28.3,0,0,0,4.18-.31,22.9,22.9,0,0,0,3.55-.77V271.91A3.28,3.28,0,0,0,524,269a9.27,9.27,0,0,0-3.87-1.19,1,1,0,0,1-.78-.53,2.11,2.11,0,0,1-.22-.93,5,5,0,0,1,.15-1.22c1.38.09,2.91.19,4.58.26s3.13.11,4.36.11,2.67,0,4.27-.11,3-.17,4.17-.26a5.78,5.78,0,0,1,.15,1.22,1.51,1.51,0,0,1-.25,1,1.06,1.06,0,0,1-.6.35,6.77,6.77,0,0,0-3.19,1,2.76,2.76,0,0,0-.89,2.27v13.67a1.84,1.84,0,0,1-.36,1.15,3.69,3.69,0,0,1-2,.77"></path>
  <path class="cls-1" d="M573.86,285c.53,0,.83.53.86,1.61A7.68,7.68,0,0,1,570,288a6.69,6.69,0,0,1-2.73-.5,5.82,5.82,0,0,1-2-1.34,6.15,6.15,0,0,1-1.22-1.92,9.09,9.09,0,0,1-.58-2.22,10.54,10.54,0,0,1-4.26,4.72,12.35,12.35,0,0,1-5.69,1.26,18.57,18.57,0,0,1-3-.26,8.74,8.74,0,0,1-3-1.12,6.62,6.62,0,0,1-2.35-2.38,7.74,7.74,0,0,1-.93-4.07,8.77,8.77,0,0,1,1.24-4.8,10.45,10.45,0,0,1,3.22-3.23,18.87,18.87,0,0,1,4.3-2c1.55-.51,3-.95,4.47-1.31.82-.16,1.57-.32,2.26-.5a17.29,17.29,0,0,0,1.82-.57,1.94,1.94,0,0,0,1.26-.85,5.82,5.82,0,0,0,.25-2.07,12.2,12.2,0,0,0-1.29-5.95c-.87-1.57-2.39-2.35-4.58-2.35a6.33,6.33,0,0,0-2.08.31,3.3,3.3,0,0,0-1.43,1,5.62,5.62,0,0,0-1,1.72c-.28.72-.56,1.57-.86,2.54a1.78,1.78,0,0,1-1,1.23,15.63,15.63,0,0,1-2.54.92,10.54,10.54,0,0,1-1.07.31,5.13,5.13,0,0,1-1.07.16c-.48,0-.73-.54-.73-1.62a5.75,5.75,0,0,1,1.22-3.38,12.27,12.27,0,0,1,3.13-3,17.3,17.3,0,0,1,4.1-2.12,12.6,12.6,0,0,1,4.23-.8,20.21,20.21,0,0,1,4.52.46,8,8,0,0,1,3.46,1.69,7.64,7.64,0,0,1,2.21,3.3,15.83,15.83,0,0,1,.76,5.38v13.2a27.6,27.6,0,0,0,.18,3.89,5.88,5.88,0,0,0,.54,1.88,3,3,0,0,0,1.1,1.42,2.55,2.55,0,0,0,1.26.35,3.1,3.1,0,0,0,1.11-.15,1.41,1.41,0,0,1,.67-.16M563,270l-2.3.38c-1.26.26-2.47.57-3.64.92a11.08,11.08,0,0,0-3.13,1.5,6.93,6.93,0,0,0-3,6,6.32,6.32,0,0,0,1.42,4.46,4.5,4.5,0,0,0,3.49,1.53,6.05,6.05,0,0,0,2.7-.65,7,7,0,0,0,2.3-1.84,10.42,10.42,0,0,0,1.59-2.8A10.08,10.08,0,0,0,563,276Z"></path>
  <path class="cls-1" d="M597.06,287.43c-1.25-.11-2.51-.2-3.8-.27s-2.59-.12-3.9-.12-2.64,0-4,.12-2.65.16-3.84.27a7.65,7.65,0,0,1-.14-1.23.83.83,0,0,1,.65-.92,14.52,14.52,0,0,0,2.93-.89,1.9,1.9,0,0,0,1.36-1.8V241.26q0-2.46-.9-3.33a5.53,5.53,0,0,0-3.39-1.12,1,1,0,0,1-.93-1.08,5,5,0,0,1,.13-1.07c.63,0,1.48,0,2.58-.12s2.1-.17,3-.26a21,21,0,0,0,3-.62,7.53,7.53,0,0,1,1.88-.39,1,1,0,0,1,.88.31,1.59,1.59,0,0,1,.21.85,27.75,27.75,0,0,1-.21,3,31.73,31.73,0,0,0-.22,4v41.1a1.89,1.89,0,0,0,1.33,1.8,13.63,13.63,0,0,0,3,.89c.38.1.56.41.56.92a6.49,6.49,0,0,1-.13,1.23"></path>
  <path class="cls-1" d="M620.76,287.43c-1.25-.11-2.51-.2-3.8-.27s-2.59-.12-3.9-.12-2.64,0-4,.12-2.65.16-3.84.27a7.65,7.65,0,0,1-.14-1.23.83.83,0,0,1,.65-.92,14.52,14.52,0,0,0,2.93-.89,1.89,1.89,0,0,0,1.35-1.8V241.26c0-1.64-.29-2.75-.89-3.33a5.56,5.56,0,0,0-3.39-1.12,1,1,0,0,1-.93-1.08,4.43,4.43,0,0,1,.13-1.07c.63,0,1.48,0,2.58-.12s2.1-.17,3-.26a21,21,0,0,0,3-.62,7.56,7.56,0,0,1,1.87-.39,1,1,0,0,1,.89.31,1.59,1.59,0,0,1,.21.85,27.75,27.75,0,0,1-.21,3,31.73,31.73,0,0,0-.22,4v41.1a1.87,1.87,0,0,0,1.33,1.8,13.63,13.63,0,0,0,3,.89c.38.1.56.41.56.92a6.49,6.49,0,0,1-.13,1.23"></path>
  <path class="cls-1" d="M654.69,279.9a1.42,1.42,0,0,1,1.07-.54c.46,0,.92.44,1.35,1.31a21.21,21.21,0,0,1-2.15,2.68,14.45,14.45,0,0,1-2.89,2.35,15.39,15.39,0,0,1-3.84,1.65,18,18,0,0,1-4.94.61,15.08,15.08,0,0,1-5.44-1,12.22,12.22,0,0,1-4.54-3.08,15.36,15.36,0,0,1-3.16-5.15,20.2,20.2,0,0,1-1.17-7.22,18.44,18.44,0,0,1,1.39-7.22,18.85,18.85,0,0,1,3.62-5.64,17.2,17.2,0,0,1,4.9-3.66,12,12,0,0,1,5.19-1.29q6.66,0,9.7,4.14t3,10.83c0,.31-.14.46-.43.46l-20.69,1a18.76,18.76,0,0,0,.79,5.53,13.42,13.42,0,0,0,2.21,4.37,10.29,10.29,0,0,0,3.46,2.88,9.83,9.83,0,0,0,4.6,1,9.14,9.14,0,0,0,4.39-1.15,11.76,11.76,0,0,0,3.54-2.92m-11.58-23.43a6.31,6.31,0,0,0-5.55,3,14,14,0,0,0-2,7.85l13.46-.7c.72,0,1.07-.33,1.07-1a12.23,12.23,0,0,0-.42-3.07,10.92,10.92,0,0,0-1.28-3,7.53,7.53,0,0,0-2.17-2.22,5.49,5.49,0,0,0-3.11-.89"></path>
  <path class="cls-1" d="M686.18,253.78a4,4,0,0,1,3.08,1.08,3.38,3.38,0,0,1,1,2.38,2.34,2.34,0,0,1-.15.85,1.93,1.93,0,0,1-.67.8,16.07,16.07,0,0,1-1.5,1c-.65.38-1.54.85-2.69,1.42a6.48,6.48,0,0,0-1.54-1.46,3.43,3.43,0,0,0-2-.61,3.66,3.66,0,0,0-2.21.73,6.06,6.06,0,0,0-1.71,2,10.5,10.5,0,0,0-1.11,2.92,14.27,14.27,0,0,0-.4,3.41v13.21a2.64,2.64,0,0,0,1.64,2.5,16.86,16.86,0,0,0,4.73,1.27.84.84,0,0,1,.72.92,5.86,5.86,0,0,1-.15,1.22c-.52-.05-1.18-.08-2-.11s-1.61-.07-2.47-.12-1.75-.09-2.66-.11-1.75,0-2.54,0c-1.29,0-2.64,0-4,.12s-2.7.17-4,.26a7.44,7.44,0,0,1-.14-1.22.83.83,0,0,1,.65-.92,11.28,11.28,0,0,0,2.89-.92,1.93,1.93,0,0,0,1.26-1.78v-19.5a15.6,15.6,0,0,0-.19-2.69,4.23,4.23,0,0,0-.6-1.73,2.57,2.57,0,0,0-1.26-1,9.33,9.33,0,0,0-2.1-.46.94.94,0,0,1-.93-1,5,5,0,0,1,.14-1.07q.93,0,2.61-.12t2.76-.27c1.06-.2,2-.42,2.79-.65a7.26,7.26,0,0,1,1.78-.35c.67,0,1,.39,1,1.16v5.14a31.73,31.73,0,0,1,4.63-4.49,8.3,8.3,0,0,1,5.25-1.81"></path>
  <path class="cls-1" d="M713.31,278.67c.72-1.95,1.49-3.95,2.36-6s1.66-4,2.41-5.87,1.34-3.51,1.82-5a12.62,12.62,0,0,0,.72-3.31,1.15,1.15,0,0,0-.58-1,11.15,11.15,0,0,0-1.25-.61c-.47-.18-.87-.36-1.25-.54a.91.91,0,0,1-.58-.89,2.24,2.24,0,0,1,.08-.45c0-.21.09-.39.13-.54q2.8.22,6,.23c1.09,0,2,0,2.86,0a22.55,22.55,0,0,0,2.29-.19,1.28,1.28,0,0,1,.18.54,3.26,3.26,0,0,1,0,.45,1.06,1.06,0,0,1-.93,1.08,10.59,10.59,0,0,0-1.69.47,3,3,0,0,0-1,.6,4,4,0,0,0-.71,1,14.39,14.39,0,0,0-.76,1.76l-14.68,37.18a13,13,0,0,1-4.28,5.84,10.14,10.14,0,0,1-6.16,2.15.93.93,0,0,1-.82-.35,1.25,1.25,0,0,1-.25-.8,7.39,7.39,0,0,1,.22-1.81,9.17,9.17,0,0,1,.56-1.77,4.77,4.77,0,0,1,.83-1.3,1.29,1.29,0,0,1,1-.5,4.74,4.74,0,0,1,1,.11,4.18,4.18,0,0,0,1,.12,4.26,4.26,0,0,0,2.86-.81,6.71,6.71,0,0,0,1.65-2.57l3.65-9.15-11-26.34c-.34-.71-.63-1.29-.87-1.73a4.55,4.55,0,0,0-.78-1.07,2.67,2.67,0,0,0-1-.62,12.19,12.19,0,0,0-1.51-.34,1.09,1.09,0,0,1-.92-1.16,2.9,2.9,0,0,1,0-.45,1.27,1.27,0,0,1,.17-.54c1,.1,1.93.16,2.91.19s2.08,0,3.33,0h2.07c1.15,0,2.21,0,3.21,0s2-.09,3-.19a1.28,1.28,0,0,1,.19.54c0,.2,0,.36,0,.45a.9.9,0,0,1-.92,1,8.1,8.1,0,0,0-2.23.64,1.09,1.09,0,0,0-.57,1,10.19,10.19,0,0,0,.43,1.92,29.19,29.19,0,0,0,1.44,3.83Z"></path>
  <path class="cls-1" d="M753.41,270.84a17.88,17.88,0,0,1,1.25-6.69,17,17,0,0,1,3.4-5.44,15.82,15.82,0,0,1,5.05-3.66,14.63,14.63,0,0,1,6.26-1.34,16.16,16.16,0,0,1,6.44,1.26,15.15,15.15,0,0,1,5.05,3.5,15.59,15.59,0,0,1,3.29,5.41,19.82,19.82,0,0,1,1.18,7,18.12,18.12,0,0,1-1.24,6.72,17.77,17.77,0,0,1-3.42,5.42,16.07,16.07,0,0,1-5,3.64,14.6,14.6,0,0,1-6.26,1.34,16.19,16.19,0,0,1-6.44-1.26,15.27,15.27,0,0,1-5-3.49,16,16,0,0,1-3.29-5.38,19.76,19.76,0,0,1-1.18-7m6.72-2.54a31.1,31.1,0,0,0,.57,5.83,21.29,21.29,0,0,0,1.77,5.42,11.76,11.76,0,0,0,3,4,6.68,6.68,0,0,0,4.51,1.59,7.43,7.43,0,0,0,6.33-3.08,13.08,13.08,0,0,0,2.25-7.92,35.89,35.89,0,0,0-.53-5.95,23.18,23.18,0,0,0-1.72-5.67,12.62,12.62,0,0,0-3.08-4.28,6.84,6.84,0,0,0-4.68-1.68,7.54,7.54,0,0,0-6.12,2.8c-1.56,1.87-2.34,4.86-2.34,8.95"></path>
  <path class="cls-1" d="M798.36,257.85h-4.29v-1.38a.93.93,0,0,1,.67-1,11.84,11.84,0,0,1,1.47-.32,3.78,3.78,0,0,0,1.47-.53c.46-.29.68-.88.68-1.8v-3.53a20.89,20.89,0,0,1,1.11-7.23,16,16,0,0,1,2.82-5,11,11,0,0,1,3.84-2.87,10.14,10.14,0,0,1,4.11-.93,16.88,16.88,0,0,1,4.26.5,12,12,0,0,1,3.26,1.35,7.39,7.39,0,0,1,2.11,1.88,3.57,3.57,0,0,1,.76,2.11c0,.31-.21.6-.62.89a7.84,7.84,0,0,1-1.35.73,10.17,10.17,0,0,1-1.46.46,6.16,6.16,0,0,1-1,.15,1.6,1.6,0,0,1-1.5-.92,13.29,13.29,0,0,0-1.91-3,4.57,4.57,0,0,0-7.15.95,13.58,13.58,0,0,0-1.26,6.49v9.77h8.45a11,11,0,0,1-.21,2.37,1.11,1.11,0,0,1-1.22.84h-7v23.51a2.72,2.72,0,0,0,1.65,2.73,18.89,18.89,0,0,0,5.37,1.11.91.91,0,0,1,.79,1,4.63,4.63,0,0,1-.07.69,4.94,4.94,0,0,0-.07.53c-.15,0-.57,0-1.27-.07s-1.51-.11-2.46-.16l-3.09-.11c-1.08,0-2.11,0-3.06,0s-1.64,0-2.47,0l-2.41.11c-.76.05-1.41.11-2,.16s-.9.07-1,.07a3.8,3.8,0,0,0-.08-.53,4.32,4.32,0,0,1-.06-.69.82.82,0,0,1,.64-.92,8.73,8.73,0,0,0,2.58-.88,2,2,0,0,0,1-1.82Z"></path>
  <path class="cls-1" d="M880.4,281.66a2.29,2.29,0,0,0,.93,2.12,13.51,13.51,0,0,0,3.72,1.19c.49.1.72.46.72,1.08a8.16,8.16,0,0,1-.14,1.38c-1.2-.1-2.6-.2-4.22-.27s-3.06-.12-4.33-.12-2.74,0-4.24.12-3,.17-4.39.27a7.32,7.32,0,0,1-.15-1.38c0-.62.25-1,.72-1.08a12.45,12.45,0,0,0,3.65-1.15,2.32,2.32,0,0,0,1-2.16V263.08H851.19v18.58a2.31,2.31,0,0,0,.93,2.12,13.62,13.62,0,0,0,3.73,1.19c.53.1.78.46.78,1.08a7.24,7.24,0,0,1-.14,1.38c-1.24-.1-2.67-.2-4.3-.27s-3.08-.12-4.36-.12-2.75,0-4.23.12-3,.17-4.43.27a7.32,7.32,0,0,1-.15-1.38q0-.93.72-1.08a12.75,12.75,0,0,0,3.73-1.15,2.32,2.32,0,0,0,1-2.16v-39a3.91,3.91,0,0,0-.18-1.28,2,2,0,0,0-.69-.87,4.09,4.09,0,0,0-1.39-.66c-.6-.18-1.37-.37-2.32-.57-.48-.06-.72-.47-.72-1.24a7,7,0,0,1,.14-1.3c1.19.11,2.58.19,4.16.27s3,.11,4.29.11,2.75,0,4.22-.11,2.94-.16,4.37-.27a7,7,0,0,1,.14,1.3c0,.72-.24,1.13-.71,1.24a9.19,9.19,0,0,0-3.7,1.15,2.69,2.69,0,0,0-.89,2.23v17.2h22.48v-17.2a2.72,2.72,0,0,0-.86-2.11,7.41,7.41,0,0,0-3.65-1.27c-.53-.06-.78-.47-.78-1.24a7,7,0,0,1,.14-1.3c1.19.11,2.59.19,4.18.27s3,.11,4.3.11,2.7,0,4.16-.11,2.92-.16,4.4-.27a9,9,0,0,1,.13,1.3c0,.72-.23,1.13-.7,1.24a9.13,9.13,0,0,0-3.7,1.15,2.64,2.64,0,0,0-.89,2.23Z"></path>
  <path class="cls-1" d="M895.35,270.84a18.27,18.27,0,0,1,1.24-6.69,17,17,0,0,1,3.42-5.44,15.56,15.56,0,0,1,5-3.66,14.6,14.6,0,0,1,6.26-1.34,16.19,16.19,0,0,1,6.44,1.26,15.15,15.15,0,0,1,5,3.5,15.9,15.9,0,0,1,3.29,5.41,19.82,19.82,0,0,1,1.18,7,17.93,17.93,0,0,1-1.25,6.72,17.56,17.56,0,0,1-3.41,5.42,16.14,16.14,0,0,1-5,3.64,14.68,14.68,0,0,1-6.27,1.34,16.16,16.16,0,0,1-6.44-1.26,15.27,15.27,0,0,1-5-3.49,15.8,15.8,0,0,1-3.29-5.38,19.76,19.76,0,0,1-1.18-7m6.72-2.54a31.1,31.1,0,0,0,.57,5.83,21.29,21.29,0,0,0,1.77,5.42,11.89,11.89,0,0,0,3,4,6.68,6.68,0,0,0,4.51,1.59,7.43,7.43,0,0,0,6.33-3.08,13.08,13.08,0,0,0,2.25-7.92,35.89,35.89,0,0,0-.53-5.95,23.18,23.18,0,0,0-1.72-5.67,12.62,12.62,0,0,0-3.08-4.28,6.84,6.84,0,0,0-4.68-1.68,7.54,7.54,0,0,0-6.12,2.8c-1.56,1.87-2.34,4.86-2.34,8.95"></path>
  <path class="cls-1" d="M966.28,261.47a12.66,12.66,0,0,0,1.3-1.47,20.93,20.93,0,0,1,2.63-2.61,22.42,22.42,0,0,1,3.72-2.53,9.44,9.44,0,0,1,4.58-1.15c2.86,0,4.9.91,6.09,2.73s1.79,4.33,1.79,7.56v18.67a1.86,1.86,0,0,0,1.3,1.73,14.32,14.32,0,0,0,2.86.88.83.83,0,0,1,.65.92,6,6,0,0,1-.15,1.23c-1.24-.11-2.45-.2-3.65-.27s-2.49-.12-3.9-.12-2.52,0-3.82.12-2.54.16-3.73.27a6.65,6.65,0,0,1-.14-1.23.82.82,0,0,1,.64-.92,6.62,6.62,0,0,0,1.32-.31,9.18,9.18,0,0,0,1.26-.54,3.86,3.86,0,0,0,1-.73,1.5,1.5,0,0,0,.39-1V266.84q0-4.75-1.08-6.41a3.86,3.86,0,0,0-3.5-1.66,9.65,9.65,0,0,0-3.55.66,9,9,0,0,0-3,1.91,9.48,9.48,0,0,0-2.06,3.12,10.38,10.38,0,0,0-.8,4.22v14a1.84,1.84,0,0,0,1.22,1.73,12.77,12.77,0,0,0,2.72.88.83.83,0,0,1,.65.92,6.16,6.16,0,0,1-.16,1.23c-1.23-.11-2.44-.2-3.61-.27s-2.4-.12-3.68-.12-2.56,0-3.83.12-2.53.16-3.76.27a6.82,6.82,0,0,1-.15-1.23.83.83,0,0,1,.65-.92,12.66,12.66,0,0,0,2.62-.81,1.92,1.92,0,0,0,1.32-1.8V266.84q0-4.75-1-6.41a3.79,3.79,0,0,0-3.46-1.66,9.49,9.49,0,0,0-3.52.66,9.09,9.09,0,0,0-3,1.91,9.42,9.42,0,0,0-2.1,3.12,10.55,10.55,0,0,0-.79,4.22v14a1.86,1.86,0,0,0,1.25,1.73,14.37,14.37,0,0,0,2.69.88.83.83,0,0,1,.64.92,7.65,7.65,0,0,1-.14,1.23c-1.24-.11-2.46-.2-3.65-.27s-2.48-.12-3.83-.12-2.73,0-4,.12-2.46.16-3.66.27a6.82,6.82,0,0,1-.15-1.23.83.83,0,0,1,.65-.92,13.92,13.92,0,0,0,2.86-.88,1.9,1.9,0,0,0,1.3-1.81v-20.9a5.61,5.61,0,0,0-.76-3.3c-.5-.66-1.59-1.08-3.25-1.23a1,1,0,0,1-.93-1.07,4.87,4.87,0,0,1,.13-1c.63,0,1.5,0,2.62-.12s2-.16,2.76-.27c1.11-.2,2.1-.42,3-.65a8.47,8.47,0,0,1,1.89-.34c.67,0,1,.38,1,1.15a17.45,17.45,0,0,1-.22,2.57,31.59,31.59,0,0,0-.21,4c.14-.15.54-.64,1.21-1.46a21.19,21.19,0,0,1,2.6-2.62,20.67,20.67,0,0,1,3.67-2.48,9.44,9.44,0,0,1,4.58-1.12,7.07,7.07,0,0,1,5.52,2,9.7,9.7,0,0,1,2.17,5.73"></path>
  <path class="cls-1" d="M1024.92,279.9a1.44,1.44,0,0,1,1.08-.54c.46,0,.91.44,1.34,1.31a20.27,20.27,0,0,1-2.14,2.68,14.74,14.74,0,0,1-2.89,2.35,15.56,15.56,0,0,1-3.84,1.65,18,18,0,0,1-4.94.61,15,15,0,0,1-5.44-1,12.3,12.3,0,0,1-4.54-3.08,15.19,15.19,0,0,1-3.15-5.15,20,20,0,0,1-1.18-7.22,18.44,18.44,0,0,1,1.39-7.22,18.65,18.65,0,0,1,3.62-5.64,17.07,17.07,0,0,1,4.9-3.66,12,12,0,0,1,5.18-1.29q6.68,0,9.71,4.14t3,10.83c0,.31-.15.46-.43.46l-20.69,1a18.76,18.76,0,0,0,.78,5.53,13.82,13.82,0,0,0,2.21,4.37,10.32,10.32,0,0,0,3.47,2.88,9.85,9.85,0,0,0,4.61,1,9.1,9.1,0,0,0,4.38-1.15,11.72,11.72,0,0,0,3.53-2.92m-11.58-23.43a6.29,6.29,0,0,0-5.54,3,14,14,0,0,0-2,7.85l13.47-.7c.71,0,1.07-.33,1.07-1a12.23,12.23,0,0,0-.42-3.07,10.92,10.92,0,0,0-1.28-3,7.69,7.69,0,0,0-2.18-2.22,5.46,5.46,0,0,0-3.11-.89"></path>
  <path class="cls-1" d="M1102.88,286.43c0,.1,0,.29,0,.57a2.73,2.73,0,0,1-.18.81,54.16,54.16,0,0,0-5.58-.23,14,14,0,0,1-2.16-.19,10.76,10.76,0,0,1-2.71-.93,23.68,23.68,0,0,1-3.76-2.29,60.41,60.41,0,0,1-5.18-4.35,27.05,27.05,0,0,1-6.77,5.91,15.54,15.54,0,0,1-8.21,2.23,17.62,17.62,0,0,1-5.18-.73A10.76,10.76,0,0,1,1059,285a9.85,9.85,0,0,1-2.7-3.89,14.86,14.86,0,0,1-1-5.59,13.73,13.73,0,0,1,2.5-8,26.33,26.33,0,0,1,7.09-6.69,32.55,32.55,0,0,1-3-3.69,21.12,21.12,0,0,1-1.85-3.27,11.4,11.4,0,0,1-1-3.06,17.56,17.56,0,0,1-.26-3.11,8.58,8.58,0,0,1,2.91-6.8,10.8,10.8,0,0,1,7.47-2.57,10.54,10.54,0,0,1,4.07.76,10.15,10.15,0,0,1,3.24,2.11,9.35,9.35,0,0,1,2.1,3.23,10.72,10.72,0,0,1-.79,9.48,18.17,18.17,0,0,1-5.4,5.46c2.58,2.82,4.91,5.34,7,7.57s4,4.18,5.65,5.88a45.9,45.9,0,0,0,2.51-4.16c.76-1.43,1.42-2.77,2-4a27.91,27.91,0,0,0,1.28-3.45,9.06,9.06,0,0,0,.48-2.43,1.47,1.47,0,0,0-.58-1.26,7.33,7.33,0,0,0-2.43-.81.9.9,0,0,1-.94-1c0-.1,0-.3,0-.61a1.47,1.47,0,0,1,.18-.69c.91.1,1.9.17,3,.19s2.23,0,3.36,0c2.2,0,4.09-.08,5.67-.23,0,.2.09.44.14.73a3.75,3.75,0,0,1,.07.57,1,1,0,0,1-.94,1.07c-.66.17-1.21.3-1.63.44a3.42,3.42,0,0,0-1.12.53,4.72,4.72,0,0,0-.93,1,10.87,10.87,0,0,0-1,1.81c-1,2.42-2.18,4.83-3.37,7.26a71.52,71.52,0,0,1-3.94,7c1.78,1.81,3.32,3.3,4.66,4.51s2.49,2.18,3.47,2.95a23.81,23.81,0,0,0,2.47,1.76,7.26,7.26,0,0,0,1.79.85,2.33,2.33,0,0,0,.71.12,6.53,6.53,0,0,1,1.19.19,4.19,4.19,0,0,1,1.11.46.91.91,0,0,1,.5.77m-36.3-23.66a16.21,16.21,0,0,0-3.86,5.3,14.67,14.67,0,0,0-1.37,6.22,10.18,10.18,0,0,0,.91,4.57,7.89,7.89,0,0,0,5,4.3,9.8,9.8,0,0,0,2.72.43,12.82,12.82,0,0,0,5.62-1.27,20.21,20.21,0,0,0,5.55-4.42q-2.87-2.68-6.45-6.37c-2.39-2.46-5.1-5.38-8.16-8.76m4.16-5.07a11.59,11.59,0,0,0,2.93-4.3,12.18,12.18,0,0,0,.86-4.31,9.69,9.69,0,0,0-1.43-5.68,5,5,0,0,0-4.36-2,4.08,4.08,0,0,0-3.08,1.27,4.84,4.84,0,0,0-1.23,3.5,11.25,11.25,0,0,0,1.3,4.95,28.42,28.42,0,0,0,5,6.57"></path>
  <path class="cls-1" d="M1140.24,281.51a1.91,1.91,0,0,0,1.08,1.84,6.6,6.6,0,0,0,2.93.54h7.81a9.88,9.88,0,0,0,3.58-.58,7.23,7.23,0,0,0,2.58-1.65,10.84,10.84,0,0,0,1.9-2.65,22.72,22.72,0,0,0,1.46-3.56.84.84,0,0,1,.86-.62,1.85,1.85,0,0,1,.75.19c.26.14.54.27.82.43-.33,1.53-.66,3.16-1,4.87s-.59,3.65-.82,5.8a1.39,1.39,0,0,1-.43,1.07,1.56,1.56,0,0,1-.87.24c-.81,0-1.82-.08-3-.2a30.1,30.1,0,0,0-3.18-.19h-17.9c-1.1,0-2.48,0-4.15.12s-3.27.16-4.8.27a7.88,7.88,0,0,1-.15-1.23c0-.72.25-1.12.73-1.23a13.38,13.38,0,0,0,4-1.19,2.21,2.21,0,0,0,1.08-2V242.57a2.37,2.37,0,0,0-1-2.18,11.16,11.16,0,0,0-3.86-1.12.74.74,0,0,1-.54-.43,1.57,1.57,0,0,1-.18-.81,7,7,0,0,1,.14-1.3c1.61.11,3.21.19,4.79.27s2.91.12,4,.12c1.64,0,3.35-.05,5.16-.12s3.44-.16,4.87-.27a6.81,6.81,0,0,1,.15,1.24c0,.86-.27,1.32-.79,1.37a15.35,15.35,0,0,0-4.54,1.11,2.7,2.7,0,0,0-1.48,2.65Z"></path>
  <path class="cls-1" d="M1174.37,261.69a5.93,5.93,0,0,0-.67-3.41c-.46-.59-1.5-1-3.11-1.12a.94.94,0,0,1-.93-1,5.08,5.08,0,0,1,.13-1.08c.63,0,1.44,0,2.47-.11a19,19,0,0,0,2.62-.35,21.67,21.67,0,0,0,2.76-.58,6.77,6.77,0,0,1,1.74-.33c.68,0,1,.37,1,1.13v19.21a25.7,25.7,0,0,0,.22,3.53,9.21,9.21,0,0,0,.78,2.81,4.13,4.13,0,0,0,1.66,1.84,5.06,5.06,0,0,0,2.71.65,9.7,9.7,0,0,0,3.51-.65,9,9,0,0,0,3-1.91,9.2,9.2,0,0,0,2.11-3.12,11,11,0,0,0,.8-4.3V261.69a6,6,0,0,0-.69-3.37c-.45-.62-1.51-1-3.19-1.16a1,1,0,0,1-.92-1,4.57,4.57,0,0,1,.14-1.08c.62,0,1.44,0,2.46-.11a21.83,21.83,0,0,0,2.7-.35,20.43,20.43,0,0,0,2.75-.58,6.56,6.56,0,0,1,1.74-.33c.67,0,1,.37,1,1.13v25a12.17,12.17,0,0,0,.14,2.12,2.47,2.47,0,0,0,1.76,2.07,7.2,7.2,0,0,0,2,.35c.62.1.93.42.93,1a4.64,4.64,0,0,1-.15,1.09,20.8,20.8,0,0,0-2.86.22l-2.88.47c-.91.15-1.73.31-2.42.46a8.52,8.52,0,0,1-1.48.23c-.69,0-1-.38-1-1.16v-6.36c-.15.15-.55.63-1.23,1.46a22.22,22.22,0,0,1-2.62,2.61,19.84,19.84,0,0,1-3.71,2.49,9.69,9.69,0,0,1-4.55,1.12c-2.9,0-5.09-.9-6.54-2.69s-2.2-4.33-2.2-7.61Z"></path>
  <path class="cls-1" d="M1217.4,258.86a6,6,0,0,0-1.61-1.58,6.55,6.55,0,0,0-2.41-.73,1,1,0,0,1-.92-1.07q0-.15,0-.51a1.32,1.32,0,0,1,.19-.57c1.18.1,2.37.17,3.54.19s2.48,0,3.9,0c3,0,5.63-.09,8-.24,0,.15.1.31.15.5a3.2,3.2,0,0,1,.06.42q0,1.08-.93,1.08a8.52,8.52,0,0,0-2.47.43.88.88,0,0,0-.61.87,4.34,4.34,0,0,0,1.15,2.38l5.3,7.14,5.08-7.76a4.55,4.55,0,0,0,.78-1.83.83.83,0,0,0-.46-.74,5.76,5.76,0,0,0-2-.42c-.63,0-.93-.38-.93-1.15a4.06,4.06,0,0,1,0-.42,1,1,0,0,1,.18-.5c1.85.15,3.88.24,6.08.24,1.9,0,3.72-.09,5.44-.24a2.35,2.35,0,0,1,.22,1,.94.94,0,0,1-.93,1.08,10.24,10.24,0,0,0-2.91.77,5.41,5.41,0,0,0-2.17,2.07l-6.74,10.22,8.67,11.83a12,12,0,0,0,2.65,2.76,6.53,6.53,0,0,0,2.64,1c.39,0,.57.4.57,1.07a7.44,7.44,0,0,1-.13,1.23c-1.35-.11-2.74-.2-4.19-.27s-2.79-.12-4-.12-2.43,0-3.87.12-2.83.16-4.22.27a7.88,7.88,0,0,1-.15-1.23c0-.62.25-.95.73-1a13.72,13.72,0,0,0,2.47-.64,1.15,1.15,0,0,0,.81-1.12,1.51,1.51,0,0,0-.31-.84c-.22-.31-.45-.64-.68-1l-5.87-8.3-4.86,7.77c-.3.45-.52.84-.69,1.14a1.69,1.69,0,0,0-.26.84,1.41,1.41,0,0,0,1,1.35,14.59,14.59,0,0,0,2.82.8.9.9,0,0,1,.71,1,7.44,7.44,0,0,1-.13,1.23c-1.25-.11-2.41-.2-3.51-.27s-2.25-.12-3.43-.12-2.25,0-3.45.12-2.41.16-3.64.27a6.82,6.82,0,0,1-.15-1.23c0-.56.22-.9.65-1a23.77,23.77,0,0,0,3.32-1,5.94,5.94,0,0,0,2.83-2.34l7.15-10.75Z"></path>
  <path class="cls-1" d="M1257.48,261.69a6,6,0,0,0-.67-3.41c-.46-.59-1.5-1-3.12-1.12a1,1,0,0,1-.93-1,4.57,4.57,0,0,1,.14-1.08c.62,0,1.44,0,2.47-.11a18.64,18.64,0,0,0,2.61-.35,22.23,22.23,0,0,0,2.77-.58,6.77,6.77,0,0,1,1.74-.33c.68,0,1,.37,1,1.13v19.21a27.39,27.39,0,0,0,.22,3.53,9.21,9.21,0,0,0,.79,2.81,4.16,4.16,0,0,0,1.65,1.84,5.08,5.08,0,0,0,2.71.65,9.66,9.66,0,0,0,3.51-.65,9,9,0,0,0,3-1.91,9.2,9.2,0,0,0,2.11-3.12,10.64,10.64,0,0,0,.8-4.3V261.69a6,6,0,0,0-.68-3.37c-.46-.62-1.52-1-3.19-1.16a1,1,0,0,1-.93-1,5.16,5.16,0,0,1,.14-1.08c.63,0,1.44,0,2.47-.11a21.4,21.4,0,0,0,2.69-.35,20.1,20.1,0,0,0,2.75-.58,6.62,6.62,0,0,1,1.75-.33c.67,0,1,.37,1,1.13v25a12.32,12.32,0,0,0,.13,2.12,2.68,2.68,0,0,0,.57,1.3,2.83,2.83,0,0,0,1.19.77,7.2,7.2,0,0,0,2,.35c.62.1.93.42.93,1a4.22,4.22,0,0,1-.16,1.09,20.66,20.66,0,0,0-2.85.22l-2.88.47c-.91.15-1.73.31-2.43.46a8.59,8.59,0,0,1-1.47.23c-.69,0-1-.38-1-1.16v-6.36c-.15.15-.55.63-1.22,1.46a23,23,0,0,1-2.62,2.61,20.51,20.51,0,0,1-3.71,2.49,9.72,9.72,0,0,1-4.55,1.12c-2.91,0-5.1-.9-6.55-2.69s-2.19-4.33-2.19-7.61Z"></path>
  <path class="cls-1" d="M1317.68,253.78a4,4,0,0,1,3.08,1.08,3.34,3.34,0,0,1,1,2.38,2.34,2.34,0,0,1-.15.85,2,2,0,0,1-.67.8,17.54,17.54,0,0,1-1.5,1c-.65.38-1.54.85-2.69,1.42a6.68,6.68,0,0,0-1.54-1.46,3.43,3.43,0,0,0-2-.61,3.69,3.69,0,0,0-2.22.73,6.18,6.18,0,0,0-1.71,2,11.17,11.17,0,0,0-1.11,2.92,14.27,14.27,0,0,0-.39,3.41v13.21a2.64,2.64,0,0,0,1.64,2.5,16.76,16.76,0,0,0,4.73,1.27.84.84,0,0,1,.72.92,6.63,6.63,0,0,1-.15,1.22c-.52-.05-1.19-.08-2-.11s-1.62-.07-2.48-.12-1.74-.09-2.66-.11-1.75,0-2.53,0c-1.29,0-2.66,0-4,.12s-2.7.17-3.95.26a6.63,6.63,0,0,1-.15-1.22.84.84,0,0,1,.65-.92,11.23,11.23,0,0,0,2.9-.92,2,2,0,0,0,1.26-1.78v-19.5a16.67,16.67,0,0,0-.19-2.69,4.23,4.23,0,0,0-.61-1.73,2.5,2.5,0,0,0-1.25-1,9.31,9.31,0,0,0-2.11-.46.94.94,0,0,1-.92-1,4.43,4.43,0,0,1,.14-1.07c.61,0,1.5,0,2.61-.12s2-.16,2.75-.27c1.07-.2,2-.42,2.79-.65a7.32,7.32,0,0,1,1.79-.35c.67,0,1,.39,1,1.16v5.14a32.2,32.2,0,0,1,4.62-4.49,8.34,8.34,0,0,1,5.25-1.81"></path>
  <path class="cls-1" d="M1344.82,278.67c.72-1.95,1.5-3.95,2.36-6s1.66-4,2.41-5.87,1.34-3.51,1.81-5a12.21,12.21,0,0,0,.72-3.31,1.14,1.14,0,0,0-.57-1,10.52,10.52,0,0,0-1.26-.61c-.45-.18-.87-.36-1.25-.54a.91.91,0,0,1-.57-.89,2.06,2.06,0,0,1,.07-.45c0-.21.1-.39.13-.54,1.88.15,3.86.23,6,.23,1.09,0,2,0,2.86,0a22.35,22.35,0,0,0,2.28-.19,1.16,1.16,0,0,1,.19.54c0,.2,0,.36,0,.45a1,1,0,0,1-.92,1.08,10.91,10.91,0,0,0-1.69.47,2.9,2.9,0,0,0-1,.6,4,4,0,0,0-.71,1,14.39,14.39,0,0,0-.76,1.76l-14.68,37.18a13,13,0,0,1-4.29,5.84,10.09,10.09,0,0,1-6.15,2.15.93.93,0,0,1-.82-.35,1.26,1.26,0,0,1-.26-.8,7.91,7.91,0,0,1,.22-1.81,9.92,9.92,0,0,1,.57-1.77,4.76,4.76,0,0,1,.82-1.3,1.31,1.31,0,0,1,1-.5,4.74,4.74,0,0,1,1,.11,4.1,4.1,0,0,0,1,.12,4.29,4.29,0,0,0,2.87-.81,6.71,6.71,0,0,0,1.65-2.57l3.65-9.15-11-26.34c-.34-.71-.63-1.29-.88-1.73a4.26,4.26,0,0,0-.77-1.07,2.63,2.63,0,0,0-1-.62,12.41,12.41,0,0,0-1.5-.34,1.09,1.09,0,0,1-.93-1.16,3.26,3.26,0,0,1,0-.45,1.27,1.27,0,0,1,.17-.54c.95.1,1.93.16,2.91.19s2.07,0,3.32,0h2.08c1.15,0,2.21,0,3.22,0s2-.09,3-.19a1.28,1.28,0,0,1,.19.54c0,.2,0,.36,0,.45a.91.91,0,0,1-.93,1,7.89,7.89,0,0,0-2.22.64,1.09,1.09,0,0,0-.57,1,10.19,10.19,0,0,0,.43,1.92,30.42,30.42,0,0,0,1.43,3.83Z"></path>
</svg>
