<?xml version="1.0" encoding="UTF-8"?>
<svg xmlns="http://www.w3.org/2000/svg" width="1019" height="420" viewBox="0 0 1019 420" fill="none">
  <path d="M60.2765 70.8114H98.3545V197.808L92.5531 189.825C98.8346 177.735 107.781 168.112 119.392 160.974C130.995 153.844 144.171 150.267 158.919 150.267C173.667 150.267 187.264 153.654 198.991 160.428C210.718 167.202 219.847 176.518 226.368 188.368C232.898 200.226 236.159 213.649 236.159 228.646V339.313H198.081V234.451C198.081 225.019 195.962 216.556 191.733 209.053C187.496 201.559 181.578 195.688 173.964 191.456C166.351 187.225 157.826 185.105 148.4 185.105C138.973 185.105 130.449 187.225 122.835 191.456C115.221 195.688 109.238 201.559 104.884 209.053C100.531 216.556 98.3545 225.019 98.3545 234.451V339.313H60.2765V70.8031V70.8114Z" fill="black"></path>
  <path d="M250.112 83.8788C254.83 79.2828 260.449 76.9807 266.979 76.9807C273.509 76.9807 279.062 79.2828 283.663 83.8788C288.257 88.4747 290.557 94.0394 290.557 100.573C290.557 107.107 288.257 112.672 283.663 117.267C279.07 121.863 273.509 124.157 266.979 124.157C260.449 124.157 254.83 121.863 250.112 117.267C245.395 112.672 243.045 107.107 243.045 100.573C243.045 94.0394 245.403 88.483 250.112 83.8788ZM247.754 153.911H285.832V339.329H247.754V153.911Z" fill="black"></path>
  <path d="M307.945 196.905C315.923 182.513 326.922 171.143 340.942 162.796C354.962 154.449 370.438 150.275 387.362 150.275C404.287 150.275 419.39 154.391 432.69 162.614C445.981 170.837 456.26 182.149 463.518 196.541C470.768 210.933 474.401 226.965 474.401 244.62C474.401 262.275 470.776 278.605 463.518 292.881C456.269 307.158 445.99 318.403 432.69 326.626C419.39 334.849 404.278 338.965 387.362 338.965C370.446 338.965 354.962 334.858 340.942 326.626C326.914 318.403 315.923 307.091 307.945 292.699C299.967 278.307 295.978 262.399 295.978 244.984C295.978 227.57 299.967 211.306 307.945 196.905ZM361.615 371.443C370.802 377.612 381.321 380.693 393.164 380.693C404.278 380.693 414.375 378.026 423.446 372.71C432.508 367.385 439.766 360.065 445.203 350.757C450.641 341.441 453.364 330.982 453.364 319.372V153.911H491.442V319.372C491.442 337.276 487.088 353.539 478.39 368.18C469.684 382.812 457.899 394.364 443.035 402.836C428.163 411.299 411.545 415.539 393.172 415.539C373.591 415.539 356.186 410.761 340.95 401.204C325.722 391.648 314.119 379.011 306.133 363.286L340.222 346.236C345.295 356.877 352.429 365.282 361.615 371.451M342.945 274.92C348.142 283.988 355.21 291.126 364.156 296.326C373.094 301.527 383.133 304.127 394.256 304.127C405.379 304.127 415.41 301.527 424.356 296.326C433.294 291.126 440.37 283.988 445.568 274.92C450.765 265.852 453.364 255.75 453.364 244.62C453.364 233.49 450.765 223.396 445.568 214.32C440.37 205.244 433.294 198.172 424.356 193.096C415.41 188.02 405.371 185.478 394.256 185.478C383.141 185.478 373.094 188.078 364.156 193.278C355.21 198.479 348.134 205.617 342.945 214.684C337.739 223.752 335.149 233.731 335.149 244.62C335.149 255.509 337.747 265.844 342.945 274.92Z" fill="black"></path>
  <path d="M504.857 70.8114H542.935V197.808L537.134 189.825C543.415 177.735 552.362 168.112 563.973 160.974C575.576 153.844 588.751 150.267 603.499 150.267C618.247 150.267 631.845 153.654 643.572 160.428C655.299 167.202 664.427 176.518 670.949 188.368C677.479 200.226 680.74 213.649 680.74 228.646V339.313H642.662V234.451C642.662 225.019 640.543 216.556 636.314 209.053C632.085 201.559 626.159 195.688 618.545 191.456C610.931 187.225 602.407 185.105 592.98 185.105C583.554 185.105 575.03 187.225 567.416 191.456C559.802 195.688 553.818 201.559 549.465 209.053C545.112 216.556 542.935 225.019 542.935 234.451V339.313H504.857V70.8031V70.8114Z" fill="black"></path>
  <path d="M827.366 81.9327C754.818 81.9327 696.009 140.777 696.009 213.368C696.009 285.959 754.818 344.803 827.366 344.803C899.914 344.803 958.724 285.959 958.724 213.368C958.724 140.777 899.914 81.9327 827.366 81.9327ZM876.352 267.169C871.395 275.268 864.608 281.619 856.01 286.215C847.403 290.811 837.703 293.113 826.911 293.113C816.119 293.113 806.999 291.325 799.128 287.747C791.25 284.17 784.943 278.92 780.201 271.989C775.459 265.057 772.579 256.851 771.561 247.361L803.722 243.643C804.301 250.069 806.676 255.137 810.831 258.855C814.985 262.573 820.348 264.436 826.911 264.436C831.579 264.436 835.808 263.376 839.598 261.265C843.389 259.153 846.302 256.23 848.346 252.512C850.39 248.794 851.408 244.595 851.408 239.925C851.408 232.778 849.223 226.899 844.845 222.303C840.467 217.707 834.856 215.405 828.003 215.405C822.608 215.405 818.014 216.573 814.224 218.908C810.433 221.243 807.446 224.307 805.253 228.1L776.154 224.597L786.872 137.688H871.974V165.487H811.377L807.363 197.336C810.301 195.514 813.314 194.007 816.417 192.848C822.252 190.662 828.525 189.56 835.228 189.56C844.125 189.56 852.294 191.639 859.734 195.796C867.174 199.953 873.042 205.832 877.345 213.418C881.649 221.003 883.801 229.839 883.801 239.908C883.801 249.978 881.318 259.062 876.36 267.161" fill="black"></path>
</svg>
