<?xml version="1.0" encoding="UTF-8"?>
<svg xmlns="http://www.w3.org/2000/svg" width="107" height="24" viewBox="0 0 107 24" fill="none">
  <path d="M63.2222 1.50738H70.0431V1.82529C70.0431 6.0718 70.0371 10.6479 70.0492 14.8915C70.0492 15.3377 70.0945 15.7985 70.2093 16.2302C70.4602 17.1664 71.1008 17.7643 72.0679 18.018C72.8053 18.2105 73.5518 18.2164 74.2861 18.0239C75.4557 17.7205 76.1961 16.8427 76.3079 15.6527C76.3351 15.3523 76.3532 15.0519 76.3532 14.7515C76.3532 10.5546 76.3532 6.02513 76.3532 1.8282V1.50446H83.1711V1.74654C83.1711 6.18263 83.1711 10.9483 83.1711 15.3844C83.1711 17.496 82.5304 19.383 81.0526 20.9667C79.7501 22.3637 78.103 23.2037 76.2293 23.6266C73.8419 24.1661 71.4605 24.137 69.1304 23.367C66.1023 22.3608 64.1107 20.395 63.4247 17.3239C63.2797 16.6706 63.2283 15.9881 63.2253 15.3173C63.2071 10.9133 63.2162 6.1768 63.2162 1.77279V1.50155L63.2222 1.50738Z" fill="#51565A"></path>
  <path d="M86.6918 2.33568C87.6347 2.07611 88.5655 1.79029 89.5115 1.56863C91.7962 1.02906 94.1141 0.89782 96.4411 1.07573C98.2755 1.21572 100.019 1.72029 101.597 2.77025C103.428 3.99229 104.664 5.72764 105.329 7.90048C106.221 10.8025 106.233 13.7336 105.32 16.6268C104.296 19.8642 102.177 21.9262 99.1187 22.912C97.7618 23.3495 96.3656 23.4924 94.9543 23.5041C92.2223 23.5216 89.5507 23.1278 86.9487 22.2237C86.7553 22.1566 86.6888 22.075 86.6888 21.8504C86.6949 15.4544 86.6949 9.05836 86.6949 2.66234V2.34152L86.6918 2.33568ZM92.4489 18.4439C92.5184 18.4614 92.5607 18.4788 92.6061 18.4788C93.5913 18.5197 94.5795 18.6363 95.5587 18.5809C97.3236 18.4847 98.6684 17.5718 99.3998 15.8481C100.409 13.4653 100.4 11.027 99.3967 8.63837C98.7863 7.18884 97.6862 6.31387 96.2175 5.99597C95.2625 5.79181 94.2985 5.87056 93.3374 5.95514C93.0413 5.98139 92.7451 6.03097 92.4489 6.0718V18.4439Z" fill="#51565A"></path>
  <path d="M20.9401 1.4403H27.2623V18.3184H36.924V23.5012H20.9431V1.4403H20.9401Z" fill="#51565A"></path>
  <path d="M60.043 9.84291C60.043 9.16044 59.9916 8.46338 59.8435 7.7984C59.1575 4.66893 57.169 2.66526 54.1378 1.63863C51.8108 0.851155 49.4264 0.821989 47.0389 1.37322C45.1622 1.80487 43.5182 2.66234 42.2156 4.08562C40.7378 5.7014 40.0972 7.62341 40.0972 9.77583C40.0972 14.2965 40.0972 18.8172 40.0972 23.3378C40.0972 23.4166 40.0972 23.4953 40.0972 23.5857H46.915V23.2591C46.915 21.2117 46.915 19.1642 46.915 17.1197H53.2312C53.2312 19.1672 53.2312 21.2146 53.2312 23.262V23.5857H60.0521V23.3087C60.0521 18.8201 60.0611 14.3315 60.043 9.84291ZM46.915 10.4233C46.915 10.1171 46.9301 9.80791 46.9603 9.50459C47.0722 8.2913 47.8156 7.39592 48.9821 7.08676C49.7165 6.89135 50.466 6.89719 51.2003 7.0926C52.1674 7.35217 52.8111 7.96173 53.0589 8.91253C53.1738 9.35293 53.2191 9.8225 53.2191 10.2775C53.2191 11.1174 53.2191 11.9574 53.2221 12.7974H46.912C46.912 12.007 46.912 11.2137 46.912 10.4233H46.915Z" fill="#51565A"></path>
  <path d="M16.8361 18.5255C16.0383 18.5138 15.313 18.2718 14.7176 17.703C14.3187 17.3239 13.9198 16.9272 13.6025 16.4781C12.4178 14.8069 11.2724 13.1065 10.1029 11.4237C9.99407 11.2662 10.0001 11.1729 10.115 11.0212C12.5538 7.90631 14.9866 4.78268 17.4163 1.66196C17.4617 1.60363 17.501 1.53655 17.5674 1.4403H17.2592C15.2737 1.4403 13.2912 1.44613 11.3057 1.43447C11.0669 1.43447 10.9188 1.51321 10.7707 1.70571C9.11464 3.88438 7.45551 6.05722 5.79336 8.23005V1.45197H0V23.3641H4.44852V23.3553H5.79336V15.154C5.79336 15.154 5.81451 15.1831 5.82358 15.1977C6.23761 15.8306 6.64861 16.4606 7.06264 17.0935C7.89674 18.3709 8.72177 19.6571 9.7523 20.78C11.2392 22.4045 12.995 23.4282 15.1739 23.5595C15.9627 23.6062 16.7394 23.5449 17.5251 23.4341V18.5284C17.2803 18.5284 17.0597 18.5284 16.8361 18.5284V18.5255Z" fill="#51565A"></path>
</svg>
